<svg id="svg" version="1.1" width="591" height="500" xmlns="http://www.w3.org/2000/svg" xmlns:xlink="http://www.w3.org/1999/xlink" style="display: block;"><g id="svgg"><path id="path0" d="M0.000 169.205 L 0.000 338.409 200.000 338.409 L 400.000 338.409 400.000 169.205 L 400.000 0.000 200.000 0.000 L 0.000 0.000 0.000 169.205 M263.959 17.916 C 337.724 28.844,401.050 130.522,387.057 215.567 C 379.827 259.510,350.817 297.021,313.029 311.289 C 310.795 312.132,308.359 313.095,307.614 313.428 C 297.512 317.950,272.932 320.959,258.883 319.395 C 229.193 316.089,205.998 304.880,184.575 283.487 L 178.625 277.546 173.069 281.472 C 122.050 317.521,51.831 299.918,23.128 243.884 C 10.802 219.822,6.396 187.517,11.737 160.376 C 18.830 124.338,33.126 94.916,55.124 71.082 C 91.942 31.192,137.277 25.410,172.927 56.057 C 177.933 60.360,177.929 60.360,181.391 56.007 C 204.418 27.056,233.888 13.461,263.959 17.916 M234.856 57.478 C 212.541 66.070,192.577 96.644,185.767 132.657 C 182.540 149.724,174.848 155.445,168.862 145.231 C 167.264 142.505,166.825 141.239,163.794 130.626 C 156.388 104.696,140.277 83.159,123.772 77.126 C 95.802 66.903,55.654 111.750,48.006 161.760 C 38.741 222.338,90.634 265.783,137.056 236.313 C 150.605 227.712,160.469 213.278,165.802 194.247 C 168.662 184.045,171.791 179.342,175.699 179.372 C 180.217 179.407,183.212 184.310,185.405 195.262 C 186.188 199.172,188.955 208.705,190.120 211.506 C 206.903 251.843,242.007 272.463,278.173 263.230 C 322.547 251.901,343.869 205.953,330.285 150.931 C 329.963 149.628,329.366 147.234,328.959 145.612 C 316.082 94.370,264.503 46.063,234.856 57.478 " stroke="none" fill="#ffffff" fill-rule="evenodd"></path><path id="path1" d="M241.963 17.923 C 219.031 21.415,198.774 34.152,181.391 56.007 C 177.929 60.360,177.933 60.360,172.927 56.057 C 132.116 20.973,78.578 34.232,41.072 88.710 C 26.284 110.190,17.290 132.163,11.737 160.376 C 6.396 187.517,10.802 219.822,23.128 243.884 C 51.831 299.918,122.050 317.521,173.069 281.472 L 178.625 277.546 184.575 283.487 C 205.998 304.880,229.193 316.089,258.883 319.395 C 272.932 320.959,297.512 317.950,307.614 313.428 C 308.359 313.095,310.795 312.132,313.029 311.289 C 381.551 285.417,408.555 198.472,373.239 117.428 C 344.811 52.190,289.958 10.613,241.963 17.923 M255.635 57.197 C 283.679 64.496,319.398 107.566,328.959 145.612 C 329.366 147.234,329.963 149.628,330.285 150.931 C 343.869 205.953,322.547 251.901,278.173 263.230 C 242.007 272.463,206.903 251.843,190.120 211.506 C 188.955 208.705,186.188 199.172,185.405 195.262 C 183.212 184.310,180.217 179.407,175.699 179.372 C 171.791 179.342,168.662 184.045,165.802 194.247 C 147.189 260.660,69.247 263.383,49.558 198.308 C 35.592 152.146,76.381 75.804,115.011 75.804 C 134.107 75.804,154.768 99.023,163.794 130.626 C 166.825 141.239,167.264 142.505,168.862 145.231 C 174.848 155.445,182.540 149.724,185.767 132.657 C 191.888 100.289,210.216 69.742,229.442 59.867 C 236.865 56.054,247.196 55.001,255.635 57.197 " stroke="none" fill="#15bbe7" fill-rule="evenodd"></path></g></svg>