<?xml version="1.0" encoding="UTF-8" standalone="no"?>
<svg width="54px" height="54px" viewBox="0 0 54 54" version="1.1" xmlns="http://www.w3.org/2000/svg" xmlns:xlink="http://www.w3.org/1999/xlink">
    <!-- Generator: Sketch 43.2 (39069) - http://www.bohemiancoding.com/sketch -->
    <title>noun_620807_cc</title>
    <desc>Created with Sketch.</desc>
    <defs></defs>
    <g id="1440-view" stroke="none" stroke-width="1" fill="none" fill-rule="evenodd">
        <g id="Our-Sevice-app-Copy" transform="translate(-1003.000000, -419.000000)" fill-rule="nonzero" stroke="#FFFFFF" fill="#FFFFFF">
            <g id="Dev" transform="translate(1004.000000, 420.000000)">
                <g id="noun_620807_cc">
                    <g id="Group">
                        <g id="Shape">
                            <path d="M27.1838667,0 L27.1838667,1.26995556 L37.5428444,1.26937778 C37.7964889,0.451822222 38.4967556,0.0814666667 39.3033333,0 C40.3548889,0 41.2076889,0.8528 41.2076889,1.90435556 C41.2076889,2.95648889 40.3548889,3.80928889 39.3033333,3.80928889 C38.2893333,3.74573333 37.8675556,3.31066667 37.4948889,2.42551111 L32.8195111,2.42551111 C40.7836,4.80133333 47.0628889,11.2273778 49.5178667,19.1232889 L49.5172889,14.4808444 C48.672,14.2248889 48.2756444,13.5361778 48.1907111,12.6966667 C48.1907111,11.6451111 49.0435111,10.7923111 50.0956444,10.7923111 L50.0950667,10.7923111 C51.1472,10.7923111 52,11.6451111 52,12.6966667 C51.9404889,13.6638667 51.5291111,14.1208889 50.6734222,14.4808444 L50.6728444,24.8161333 L51.9428,24.8161333 L51.9428,28.5110222 L50.6728444,28.5110222 L50.6728444,38.8457333 C51.5187111,39.1016889 51.9156444,39.7904 52,40.6299111 C52,41.6814667 51.1472,42.5342667 50.0956444,42.5342667 C49.0435111,42.5342667 48.1907111,41.6814667 48.1907111,40.6299111 C48.2502222,39.6627111 48.6616,39.2056889 49.5178667,38.8457333 L49.5172889,34.0894667 C46.4348444,44.4334222 36.6374667,51.6579556 25.9144889,51.9283556 L25.9144889,51.9428 L0,51.9428 L0,26.0283111 L0.0144444444,26.0283111 C0.1664,15.2273333 7.6128,5.60848889 17.8533333,2.42551111 L13.1779556,2.42551111 C12.9185333,3.29795556 12.2425333,3.72088889 11.3700889,3.80928889 C10.3185333,3.80928889 9.46573333,2.95648889 9.46573333,1.90435556 C9.50791111,0.791555556 10.3092889,0.106888889 11.3700889,0 L11.6890222,0.0335111111 C12.4291556,0.151955556 12.7960444,0.660977778 13.13,1.26995556 L23.4889778,1.26995556 L23.4889778,0 L27.1838667,0 Z M1.15555556,34.0894667 L1.15555556,34.0894667 L1.15555556,50.7872444 L17.8533333,50.7872444 C9.88924444,48.4114222 3.61053333,41.9853778 1.15555556,34.0894667 Z M46.4989778,14.9552 C46.8849333,16.8485778 46.7734222,15.9264444 46.8641333,17.7187111 C46.8641333,24.6994222 41.2053778,30.3581778 34.2246667,30.3581778 C31.2525778,30.2634222 28.0759556,29.3638222 25.9144889,27.2023556 L25.9144889,50.7728 C38.3933333,50.5653778 47.9249333,40.5519111 49.374,28.5110222 L48.2479111,28.5110222 L48.2479111,24.8161333 L49.4404444,24.8161333 C49.2416889,21.3148 48.0676444,18.0532444 46.4989778,14.9552 Z M24.7589333,27.1838667 L1.17,27.1838667 C1.33697778,39.9417778 12.1183111,50.4538667 24.7589333,50.7728 L24.7589333,27.1838667 Z M34.2240889,6.23422222 L34.2240889,6.23422222 C27.8818222,6.23422222 22.7401778,11.3758667 22.7401778,17.7187111 C22.7401778,24.0609778 27.8818222,29.2026222 34.2246667,29.2026222 C40.5669333,29.2026222 45.7085778,24.0609778 45.7085778,17.7187111 C45.7085778,11.3758667 40.5669333,6.23422222 34.2246667,6.23422222 L34.2240889,6.23422222 Z M50.7872444,27.3554667 L50.7872444,25.9716889 L49.4034667,25.9716889 L49.4034667,27.3554667 L50.7872444,27.3554667 Z M23.4889778,2.52604444 C11.1436,3.55217778 1.78937778,13.8169778 1.17,26.0283111 L24.7404444,26.0283111 C22.5564444,23.8229333 21.736,20.7208444 21.5846222,17.7187111 C21.5846222,10.738 27.2433778,5.07866667 34.2246667,5.07866667 C36.0163556,5.16937778 35.0942222,5.05786667 36.9876,5.44382222 C33.8837778,3.57066667 30.7083111,2.9848 27.1838667,2.54048889 L27.1838667,3.69488889 L23.4889778,3.69488889 L23.4889778,2.52604444 Z M26.0283111,1.15555556 L24.6445333,1.15555556 L24.6445333,2.53933333 L26.0283111,2.53933333 L26.0283111,1.15555556 Z"></path>
                        </g>
                    </g>
                </g>
            </g>
        </g>
    </g>
</svg>