<?xml version="1.0" encoding="UTF-8" standalone="no"?>
<svg width="35px" height="58px" viewBox="0 0 35 58" version="1.1" xmlns="http://www.w3.org/2000/svg" xmlns:xlink="http://www.w3.org/1999/xlink">
    <!-- Generator: Sketch 43.2 (39069) - http://www.bohemiancoding.com/sketch -->
    <title>noun_105208_cc</title>
    <desc>Created with Sketch.</desc>
    <defs></defs>
    <g id="1440-view" stroke="none" stroke-width="1" fill="none" fill-rule="evenodd">
        <g id="Our-Sevice-app-Copy-2" transform="translate(-311.000000, -421.000000)" fill-rule="nonzero" stroke="#FFFFFF" fill="#FFFFFF">
            <g id="Idea" transform="translate(39.000000, 422.000000)">
                <g id="noun_105208_cc" transform="translate(273.000000, 0.000000)">
                    <g id="Group">
                        <g id="Shape">
                            <path d="M16.5666667,19.4444444 C16.1,19.4444444 15.7888889,19.1333333 15.7888889,18.6666667 L15.7888889,1.01111111 C15.7888889,0.544444444 16.1,0.233333333 16.5666667,0.233333333 C17.0333333,0.233333333 17.3444444,0.544444444 17.3444444,1.01111111 L17.3444444,18.6666667 C17.3444444,19.0555556 16.9555556,19.4444444 16.5666667,19.4444444 Z"></path>
                            <path d="M16.7222222,36.2444444 C7.62222222,36.2444444 0.233333333,28.8555556 0.233333333,19.7555556 C0.233333333,12.5222222 5.05555556,5.98888889 11.9777778,3.96666667 C12.3666667,3.81111111 12.8333333,4.04444444 12.9111111,4.51111111 C13.0666667,4.9 12.8333333,5.36666667 12.3666667,5.44444444 C6.06666667,7.31111111 1.71111111,13.2222222 1.71111111,19.7555556 C1.71111111,28 8.4,34.6888889 16.6444444,34.6888889 C25.0444444,34.6888889 31.5777778,28.1555556 31.5777778,19.7555556 C31.5777778,13.1444444 27.2222222,7.31111111 20.9222222,5.67777778 C20.5333333,5.6 20.2222222,5.13333333 20.3777778,4.74444444 C20.4555556,4.35555556 20.9222222,4.12222222 21.3111111,4.2 C28.2333333,6.06666667 33.0555556,12.4444444 33.0555556,19.8333333 C33.2111111,28.9333333 25.9777778,36.2444444 16.7222222,36.2444444 Z"></path>
                            <path d="M19.5222222,55.7666667 L14.0777778,55.7666667 C12.6,55.7666667 11.3555556,54.5222222 11.3555556,53.0444444 L11.3555556,47.9111111 C11.3555556,47.4444444 11.6666667,47.1333333 12.1333333,47.1333333 L21.1555556,47.1333333 C21.6222222,47.1333333 21.9333333,47.4444444 21.9333333,47.9111111 L21.9333333,53.0444444 C22.0111111,54.5222222 20.8444444,55.7666667 19.5222222,55.7666667 Z M12.9111111,48.6888889 L12.9111111,53.0444444 C12.9111111,53.6666667 13.4555556,54.2111111 14.0777778,54.2111111 L19.4444444,54.2111111 C19.9111111,54.2111111 20.3777778,53.6666667 20.3777778,53.0444444 L20.3777778,48.6888889 L12.9111111,48.6888889 Z"></path>
                            <path d="M25.7444444,42.6222222 L7.62222222,42.6222222 C7.15555556,42.6222222 6.84444444,42.3111111 6.84444444,41.8444444 C6.84444444,41.3777778 7.15555556,41.0666667 7.62222222,41.0666667 L25.7444444,41.0666667 C26.2111111,41.0666667 26.5222222,41.3777778 26.5222222,41.8444444 C26.5222222,42.3111111 26.1333333,42.6222222 25.7444444,42.6222222 Z"></path>
                            <path d="M25.1222222,48.6888889 L8.32222222,48.6888889 C7.85555556,48.6888889 7.54444444,48.3777778 7.54444444,47.9111111 C7.54444444,47.4444444 7.85555556,47.1333333 8.32222222,47.1333333 L25.1222222,47.1333333 C25.5888889,47.1333333 25.9,47.4444444 25.9,47.9111111 C25.9,48.3777778 25.5111111,48.6888889 25.1222222,48.6888889 Z"></path>
                        </g>
                    </g>
                </g>
            </g>
        </g>
    </g>
</svg>