<?xml version="1.0" encoding="UTF-8" standalone="no"?>
<svg width="55px" height="54px" viewBox="0 0 55 54" version="1.1" xmlns="http://www.w3.org/2000/svg" xmlns:xlink="http://www.w3.org/1999/xlink">
    <!-- Generator: Sketch 43.2 (39069) - http://www.bohemiancoding.com/sketch -->
    <title>noun_742056_cc</title>
    <desc>Created with Sketch.</desc>
    <defs></defs>
    <g id="1440-view" stroke="none" stroke-width="1" fill="none" fill-rule="evenodd">
        <g id="Our-Sevice-app" transform="translate(-319.000000, -687.000000)" fill-rule="nonzero" stroke="#FFFFFF" fill="#FFFFFF">
            <g id="Design" transform="translate(41.000000, 688.000000)">
                <g id="noun_742056_cc" transform="translate(279.000000, 0.000000)">
                    <g id="Group">
                        <path d="M51.417,32.856 C50.05,31.4875 47.925,31.3295 46.379,32.3775 L37.4915,23.4895 L37.4905,15.8015 C37.4905,15.3875 37.1545,15.0515 36.7405,15.0515 L29.053,15.0515 L20.2785,6.277 C21.3265,4.731 21.1685,2.607 19.8005,1.239 C18.2505,-0.311 15.7295,-0.31 14.181,1.239 C12.6315,2.7885 12.6315,5.31 14.181,6.859 C14.9555,7.634 15.973,8.021 16.9905,8.021 C17.77,8.021 18.548,7.792 19.218,7.3375 L26.3865,14.5055 C21.001,12.2025 15.022,12.3005 10.1845,14.882 L7.3765,12.074 C7.095,11.7925 6.597,11.7925 6.316,12.074 L0.66,17.73 C0.5195,17.8705 0.4405,18.0615 0.4405,18.2605 C0.4405,18.4595 0.5195,18.65 0.66,18.791 L6.3155,24.445 C6.462,24.5915 6.654,24.6645 6.846,24.6645 C7.038,24.6645 7.23,24.5915 7.3765,24.445 L13.032,18.7895 C13.325,18.4965 13.325,18.022 13.032,17.729 L11.295,15.992 C16.3335,13.4945 22.6475,13.872 27.993,16.9945 L27.993,23.798 C27.993,24.212 28.329,24.548 28.743,24.548 L35.4755,24.549 C38.503,29.8565 38.8435,36.0875 36.374,41.0705 L34.6365,39.333 C34.355,39.0515 33.857,39.0515 33.576,39.333 L27.92,44.9895 C27.627,45.2825 27.627,45.757 27.92,46.05 L33.5755,51.7055 C33.722,51.852 33.9145,51.925 34.106,51.925 C34.2985,51.925 34.49,51.852 34.6365,51.7055 L40.293,46.05 C40.4335,45.9095 40.5125,45.7185 40.5125,45.5195 C40.5125,45.3205 40.4335,45.13 40.293,44.989 L37.4845,42.1805 C40.0655,37.3435 40.165,31.365 37.8625,25.98 L45.3195,33.4375 C44.2725,34.9825 44.43,37.1065 45.798,38.4745 C46.5725,39.2495 47.59,39.6365 48.6085,39.6365 C49.626,39.6365 50.6435,39.2495 51.418,38.4745 C52.966,36.926 52.966,34.4055 51.417,32.856 Z M18.7395,5.7985 C17.7745,6.7625 16.2065,6.7625 15.2415,5.7985 C14.277,4.8335 14.277,3.2645 15.2415,2.2995 C15.724,1.8175 16.357,1.5765 16.9905,1.5765 C17.6245,1.5765 18.2575,1.8175 18.74,2.2995 C19.704,3.2635 19.704,4.8335 18.7395,5.7985 Z M11.4405,18.2595 L6.846,22.854 L2.2515,18.26 L6.846,13.6645 L11.4405,18.2595 Z M29.4925,23.0485 L29.4925,16.5515 L35.9905,16.5515 L35.9915,23.0495 L29.4925,23.0485 Z M38.7015,45.52 L34.106,50.1145 L29.5115,45.52 L34.106,40.9245 L38.7015,45.52 Z M50.3565,37.4145 C49.3915,38.38 47.8225,38.379 46.8575,37.4145 C45.8935,36.45 45.8935,34.881 46.8575,33.9165 C47.34,33.434 47.9735,33.1935 48.6075,33.1935 C49.2405,33.1935 49.874,33.434 50.3565,33.9165 C51.3205,34.881 51.3205,36.45 50.3565,37.4145 Z" id="Shape"></path>
                    </g>
                </g>
            </g>
        </g>
    </g>
</svg>