<?xml version="1.0" encoding="UTF-8" standalone="no"?>
<svg width="54px" height="54px" viewBox="0 0 54 54" version="1.1" xmlns="http://www.w3.org/2000/svg" xmlns:xlink="http://www.w3.org/1999/xlink">
    <!-- Generator: Sketch 43.2 (39069) - http://www.bohemiancoding.com/sketch -->
    <title>noun_486979_cc</title>
    <desc>Created with Sketch.</desc>
    <defs></defs>
    <g id="1440-view" stroke="none" stroke-width="1" fill="none" fill-rule="evenodd">
        <g id="Our-Sevice-app-Copy" transform="translate(-292.000000, -422.000000)" fill-rule="nonzero" stroke="#FFFFFF" fill="#FFFFFF">
            <g id="Idea" transform="translate(27.000000, 423.000000)">
                <g id="noun_486979_cc" transform="translate(266.000000, 0.000000)">
                    <g id="Group">
                        <g>
                            <g>
                                <rect id="Rectangle-path" x="32.5" y="49.8333333" width="2.16666667" height="2.16666667"></rect>
                                <rect id="Rectangle-path" x="36.8333333" y="45.5" width="2.16666667" height="2.16666667"></rect>
                                <rect id="Rectangle-path" x="23.8333333" y="49.8333333" width="2.16666667" height="2.16666667"></rect>
                                <rect id="Rectangle-path" x="36.8333333" y="49.8333333" width="2.16666667" height="2.16666667"></rect>
                                <rect id="Rectangle-path" x="28.1666667" y="49.8333333" width="2.16666667" height="2.16666667"></rect>
                                <rect id="Rectangle-path" x="10.8333333" y="49.8333333" width="2.16666667" height="2.16666667"></rect>
                                <rect id="Rectangle-path" x="15.1666667" y="49.8333333" width="2.16666667" height="2.16666667"></rect>
                                <rect id="Rectangle-path" x="6.5" y="49.8333333" width="2.16666667" height="2.16666667"></rect>
                                <rect id="Rectangle-path" x="36.8333333" y="41.1666667" width="2.16666667" height="2.16666667"></rect>
                                <rect id="Rectangle-path" x="19.5" y="49.8333333" width="2.16666667" height="2.16666667"></rect>
                                <rect id="Rectangle-path" x="0" y="13" width="2.16666667" height="2.16666667"></rect>
                                <rect id="Rectangle-path" x="0" y="17.3333333" width="2.16666667" height="2.16666667"></rect>
                                <polygon id="Shape" points="2.16666667 49.8333333 2.16666667 47.6666667 0 47.6666667 0 52 4.33333333 52 4.33333333 49.8333333"></polygon>
                                <rect id="Rectangle-path" x="0" y="43.3333333" width="2.16666667" height="2.16666667"></rect>
                                <rect id="Rectangle-path" x="0" y="39" width="2.16666667" height="2.16666667"></rect>
                                <rect id="Rectangle-path" x="4.33333333" y="13" width="2.16666667" height="2.16666667"></rect>
                                <rect id="Rectangle-path" x="0" y="26" width="2.16666667" height="2.16666667"></rect>
                                <rect id="Rectangle-path" x="0" y="21.6666667" width="2.16666667" height="2.16666667"></rect>
                                <rect id="Rectangle-path" x="0" y="30.3333333" width="2.16666667" height="2.16666667"></rect>
                                <rect id="Rectangle-path" x="0" y="34.6666667" width="2.16666667" height="2.16666667"></rect>
                                <rect id="Rectangle-path" x="8.66666667" y="13" width="2.16666667" height="2.16666667"></rect>
                                <path d="M13,10.8333333 L13,15.1666667 L36.8333333,15.1666667 L36.8333333,39 L39,39 L52,39 L52,0 L13,0 L13,10.8333333 Z M49.8333333,2.16666667 L49.8333333,36.8333333 L39,36.8333333 L39,13 L15.1666667,13 L15.1666667,2.16666667 L49.8333333,2.16666667 Z" id="Shape"></path>
                            </g>
                        </g>
                    </g>
                </g>
            </g>
        </g>
    </g>
</svg>