<?xml version="1.0" encoding="UTF-8" standalone="no"?>
<svg width="66px" height="54px" viewBox="0 0 66 54" version="1.1" xmlns="http://www.w3.org/2000/svg" xmlns:xlink="http://www.w3.org/1999/xlink">
    <!-- Generator: Sketch 43.2 (39069) - http://www.bohemiancoding.com/sketch -->
    <title>noun_402008_cc</title>
    <desc>Created with Sketch.</desc>
    <defs></defs>
    <g id="1440-view" stroke="none" stroke-width="1" fill="none" fill-rule="evenodd">
        <g id="Our-Sevice-app" transform="translate(-1004.000000, -422.000000)" fill-rule="nonzero" stroke="#FFFFFF" fill="#FFFFFF">
            <g id="Dev" transform="translate(1004.000000, 423.000000)">
                <g id="noun_402008_cc" transform="translate(1.000000, 0.000000)">
                    <g id="Group">
                        <g>
                            <circle id="Oval" cx="11" cy="7" r="1"></circle>
                            <path d="M11.1806641,38.5742188 C11.375,38.8515625 11.6855469,39 12.0009766,39 C12.1992188,39 12.3994141,38.9414062 12.5732422,38.8183594 L22.5732422,31.8183594 C22.8408203,31.6328125 23,31.3261719 23,31 C23,30.6738281 22.8408203,30.3671875 22.5732422,30.1816406 L12.5732422,23.1816406 C12.1191406,22.8613281 11.4970703,22.9746093 11.1806641,23.4257812 C10.8642578,23.8789062 10.9736328,24.5019531 11.4267579,24.8183593 L20.2558594,31 L11.4267578,37.1816406 C10.9736328,37.4980469 10.8642578,38.1210938 11.1806641,38.5742188 Z" id="Shape"></path>
                            <path d="M26,40 L36,40 C36.5527344,40 37,39.5527344 37,39 C37,38.4472656 36.5527344,38 36,38 L26,38 C25.4472656,38 25,38.4472656 25,39 C25,39.5527344 25.4472656,40 26,40 Z" id="Shape"></path>
                            <path d="M63,0 L1,0 C0.4472656,0 0,0.4472656 0,1 L0,51 C0,51.5527344 0.4472656,52 1,52 L63,52 C63.5527344,52 64,51.5527344 64,51 L64,1 C64,0.4472656 63.5527344,0 63,0 Z M62,50 L2,50 L2,14 L62,14 L62,50 Z M62,12 L2,12 L2,2 L62,2 L62,12 Z" id="Shape"></path>
                        </g>
                    </g>
                </g>
            </g>
        </g>
    </g>
</svg>