<?xml version="1.0" encoding="UTF-8" standalone="no"?>
<svg width="77px" height="57px" viewBox="0 0 77 57" version="1.1" xmlns="http://www.w3.org/2000/svg" xmlns:xlink="http://www.w3.org/1999/xlink">
    <!-- Generator: Sketch 43.2 (39069) - http://www.bohemiancoding.com/sketch -->
    <title>noun_554312_cc</title>
    <desc>Created with Sketch.</desc>
    <defs></defs>
    <g id="1440-view" stroke="none" stroke-width="1" fill="none" fill-rule="evenodd">
        <g id="Our-Sevice-app" transform="translate(-298.000000, -422.000000)" fill-rule="nonzero" stroke="#FFFFFF" fill="#FFFFFF">
            <g id="Idea" transform="translate(36.000000, 422.000000)">
                <g id="noun_554312_cc" transform="translate(262.000000, 0.000000)">
                    <g id="Group">
                        <g id="Shape">
                            <path d="M58.7460302,37.3389261 L42.460002,37.3389261 C41.898134,37.3389261 41.4421252,37.7949349 41.4421252,38.3568028 L41.4421252,54.642831 C41.4421252,55.204699 41.898134,55.6607077 42.460002,55.6607077 L58.7460302,55.6607077 C59.3078981,55.6607077 59.7639069,55.204699 59.7639069,54.642831 L59.7639069,38.3568028 C59.7639069,37.7949349 59.3078981,37.3389261 58.7460302,37.3389261 Z M57.7281534,53.6249542 L43.4778788,53.6249542 L43.4778788,39.3746796 L57.7281534,39.3746796 L57.7281534,53.6249542 Z"></path>
                            <path d="M18.896155,18.5346708 C19.0814086,18.235415 19.0997304,17.8588006 18.9409416,17.5452946 L10.7979275,1.25926642 C10.4518494,0.569145977 9.32200619,0.569145977 8.97592809,1.25926642 L0.832914012,17.5452946 C0.674125237,17.8608364 0.692447019,18.235415 0.877700589,18.5346708 C1.06295416,18.8339266 1.39274623,19.0171444 1.74493159,19.0171444 L18.0309598,19.0171444 C18.3831451,19.0171444 18.7109014,18.8339266 18.896155,18.5346708 Z M3.39185619,16.9813909 L9.88794567,3.98921189 L16.3840352,16.9813909 L3.39185619,16.9813909 Z"></path>
                            <path d="M70.9605513,14.9456373 C71.5224193,14.9456373 71.978428,14.4896285 71.978428,13.9277606 C71.978428,13.3658926 71.5224193,12.9098838 70.9605513,12.9098838 C39.725985,12.9098838 13.5136227,26.8792245 9.43397264,45.5267267 C6.8424584,45.7628741 4.79856187,47.9187371 4.79856187,50.5713239 C4.79856187,53.3786281 7.08267732,55.6607077 9.88794567,55.6607077 C12.693214,55.6607077 14.9773295,53.3786281 14.9773295,50.5713239 C14.9773295,48.3197806 13.4973367,46.4285655 11.4676904,45.7588026 C15.4883036,28.1291771 40.7805053,14.9456373 70.9605513,14.9456373 Z M12.941576,50.5713239 C12.941576,52.2548921 11.5715138,53.6249542 9.88794567,53.6249542 C8.20437751,53.6249542 6.83431539,52.2548921 6.83431539,50.5713239 C6.83431539,48.8877558 8.20437751,47.5176937 9.88794567,47.5176937 C11.5715138,47.5176937 12.941576,48.8877558 12.941576,50.5713239 Z"></path>
                            <path d="M75.7527151,14.6484173 C76.149687,14.2514454 76.149687,13.6061115 75.7527151,13.2091396 L67.609701,5.0661255 C67.2127291,4.66915357 66.5673952,4.66915357 66.1704232,5.0661255 C65.7734513,5.46309744 65.7734513,6.10843131 66.1704232,6.50540324 L73.5927806,13.9277606 L66.1704232,21.3501179 C65.7734513,21.7470898 65.7734513,22.3924237 66.1704232,22.7893957 C66.3678913,22.9888995 66.6284678,23.0886514 66.8890442,23.0886514 C67.1496207,23.0886514 67.4101971,22.9888995 67.609701,22.7914314 L75.7527151,14.6484173 Z"></path>
                        </g>
                    </g>
                </g>
            </g>
        </g>
    </g>
</svg>