<?xml version="1.0" encoding="UTF-8" standalone="no"?>
<svg width="53px" height="55px" viewBox="0 0 53 55" version="1.1" xmlns="http://www.w3.org/2000/svg" xmlns:xlink="http://www.w3.org/1999/xlink">
    <!-- Generator: Sketch 43.2 (39069) - http://www.bohemiancoding.com/sketch -->
    <title>noun_741324_cc</title>
    <desc>Created with Sketch.</desc>
    <defs></defs>
    <g id="1440-view" stroke="none" stroke-width="1" fill="none" fill-rule="evenodd">
        <g id="Our-Sevice-app-Copy" transform="translate(-289.000000, -685.000000)" stroke="#FFFFFF" fill-rule="nonzero" fill="#FFFFFF">
            <g id="Design" transform="translate(23.000000, 685.000000)">
                <g id="noun_741324_cc" transform="translate(293.500000, 30.000000) rotate(9.000000) translate(-293.500000, -30.000000) translate(269.000000, 4.000000)">
                    <g id="Group" transform="translate(-0.000000, 0.000000)">
                        <path d="M12.1333333,39.52 C10.0533333,39.52 8.32,41.2533333 8.32,43.3333333 C8.32,45.4133333 10.0533333,47.1466667 12.1333333,47.1466667 C14.2133333,47.1466667 15.9466667,45.4133333 15.9466667,43.3333333 C15.9466667,41.2533333 14.2133333,39.52 12.1333333,39.52 Z M12.1333333,45.9911111 C10.6888889,45.9911111 9.47555556,44.7777778 9.47555556,43.3333333 C9.47555556,41.8888889 10.6888889,40.6755556 12.1333333,40.6755556 C13.5777778,40.6755556 14.7911111,41.8888889 14.7911111,43.3333333 C14.7911111,44.7777778 13.5777778,45.9911111 12.1333333,45.9911111 Z M4.85333333,14.3288889 L19.3555556,14.3288889 C19.7022222,14.3288889 19.9333333,14.0977778 19.9333333,13.7511111 L19.9333333,6.81777778 C19.9333333,6.47111111 19.7022222,6.24 19.3555556,6.24 L4.85333333,6.24 C4.50666667,6.24 4.27555556,6.47111111 4.27555556,6.81777778 L4.27555556,13.7511111 C4.27555556,14.04 4.56444444,14.3288889 4.85333333,14.3288889 Z M5.43111111,7.39555556 L18.7777778,7.39555556 L18.7777778,13.1733333 L5.43111111,13.1733333 L5.43111111,7.39555556 Z M31.0266667,10.9777778 C30.7955556,10.7466667 30.4488889,10.7466667 30.2177778,10.9777778 L25.3066667,15.8888889 C25.1911111,16.0044444 25.1333333,16.12 25.1333333,16.2933333 C25.1333333,16.4666667 25.1911111,16.5822222 25.3066667,16.6977778 L35.5911111,26.9822222 C35.7066667,27.0977778 35.88,27.1555556 35.9955556,27.1555556 C36.1111111,27.1555556 36.2844444,27.0977778 36.4,26.9822222 L41.3111111,22.0711111 C41.4266667,21.9555556 41.4844444,21.84 41.4844444,21.6666667 C41.4844444,21.4933333 41.4266667,21.3777778 41.3111111,21.2622222 L31.0266667,10.9777778 Z M35.9955556,25.7111111 L26.5777778,16.2933333 L30.68,12.1911111 L40.1555556,21.6666667 L35.9955556,25.7111111 Z M19.4133333,26.8088889 L4.91111111,26.8088889 C4.56444444,26.8088889 4.33333333,27.04 4.33333333,27.3866667 L4.33333333,34.32 C4.33333333,34.6666667 4.56444444,34.8977778 4.91111111,34.8977778 L19.4133333,34.8977778 C19.76,34.8977778 19.9911111,34.6666667 19.9911111,34.32 L19.9911111,27.3866667 C19.9911111,27.04 19.7022222,26.8088889 19.4133333,26.8088889 Z M18.8355556,33.7422222 L5.48888889,33.7422222 L5.48888889,27.9644444 L18.8355556,27.9644444 L18.8355556,33.7422222 Z M47.6088889,18.72 L33.5688889,4.68 C32.8755556,3.98666667 31.72,3.98666667 31.0266667,4.68 L23.8044444,11.9022222 L23.8044444,1.79111111 C23.8044444,0.808888889 22.9955556,1.24344979e-13 22.0133333,1.24344979e-13 L2.19555556,1.24344979e-13 C1.21333333,1.24344979e-13 0.404444444,0.808888889 0.404444444,1.79111111 L0.404444444,40.2711111 C0.404444444,46.7422222 5.66222222,52 12.1333333,52 C15.8311111,52 19.1822222,50.2666667 21.32,47.5511111 L47.6088889,21.2622222 C47.9555556,20.9155556 48.1288889,20.4533333 48.1288889,19.9911111 C48.1288889,19.4711111 47.9555556,19.0666667 47.6088889,18.72 Z M23.8044444,19.9333333 L32.8177778,28.9466667 L28.7155556,33.0488889 L23.8044444,28.1377778 L23.8044444,19.9333333 L23.8044444,19.9333333 Z M23.8044444,34.4355556 L25.5377778,36.1688889 L23.8044444,37.9022222 L23.8044444,34.4355556 Z M22.6488889,28.3111111 L22.6488889,39.3466667 L22.6488889,40.2711111 C22.6488889,42.6977778 21.7822222,44.9511111 20.3955556,46.7422222 L19.5288889,47.6088889 C19.4711111,47.6666667 19.4133333,47.7822222 19.4133333,47.84 C17.5066667,49.7466667 14.9644444,50.8444444 12.1333333,50.8444444 C6.29777778,50.8444444 1.56,46.1066667 1.56,40.2711111 L1.56,1.79111111 C1.56,1.44444444 1.84888889,1.15555556 2.19555556,1.15555556 L22.0133333,1.15555556 C22.36,1.15555556 22.6488889,1.44444444 22.6488889,1.79111111 L22.6488889,28.3111111 L22.6488889,28.3111111 Z M46.8,20.3955556 L23.2266667,43.9688889 C23.6311111,42.8133333 23.8044444,41.6 23.8044444,40.2711111 L23.8044444,39.5777778 L26.7511111,36.6311111 C26.9822222,36.4 26.9822222,36.0533333 26.7511111,35.8222222 L23.8044444,32.8755556 L23.8044444,29.7555556 L28.3111111,34.2622222 C28.4266667,34.3777778 28.6,34.4355556 28.7155556,34.4355556 C28.8311111,34.4355556 29.0044444,34.3777778 29.12,34.2622222 L34.0311111,29.3511111 C34.2622222,29.12 34.2622222,28.7733333 34.0311111,28.5422222 L23.8044444,18.2577778 L23.8044444,13.52 L31.8355556,5.48888889 C32.0666667,5.25777778 32.4711111,5.25777778 32.7022222,5.48888889 L46.8,19.5288889 C46.9155556,19.6444444 46.9733333,19.8177778 46.9733333,19.9911111 C46.9733333,20.1644444 46.9155556,20.28 46.8,20.3955556 Z M19.4133333,16.5244444 L4.91111111,16.5244444 C4.56444444,16.5244444 4.33333333,16.7555556 4.33333333,17.1022222 L4.33333333,24.0355556 C4.33333333,24.3822222 4.56444444,24.6133333 4.91111111,24.6133333 L19.4133333,24.6133333 C19.76,24.6133333 19.9911111,24.3822222 19.9911111,24.0355556 L19.9911111,17.1022222 C19.9911111,16.7555556 19.7022222,16.5244444 19.4133333,16.5244444 Z M18.8355556,23.4577778 L5.48888889,23.4577778 L5.48888889,17.68 L18.8355556,17.68 L18.8355556,23.4577778 Z" id="Shape"></path>
                    </g>
                </g>
            </g>
        </g>
    </g>
</svg>