<?xml version="1.0" encoding="UTF-8" standalone="no"?>
<svg width="54px" height="73px" viewBox="0 0 54 73" version="1.1" xmlns="http://www.w3.org/2000/svg" xmlns:xlink="http://www.w3.org/1999/xlink">
    <!-- Generator: Sketch 43.2 (39069) - http://www.bohemiancoding.com/sketch -->
    <title>noun_630491_cc</title>
    <desc>Created with Sketch.</desc>
    <defs></defs>
    <g id="1440-view" stroke="none" stroke-width="1" fill="none" fill-rule="evenodd">
        <g id="Our-Sevice-app-Copy" transform="translate(-1003.000000, -684.000000)" fill-rule="nonzero" stroke="#FFFFFF" fill="#FFFFFF">
            <g id="quality" transform="translate(1004.000000, 684.000000)">
                <g id="noun_630491_cc">
                    <g id="Group">
                        <path d="M36.4928571,65.65 C36.4928571,68.25 34.45,70.3857143 31.9428571,70.3857143 L6.03571429,70.3857143 C3.52857143,70.3857143 1.48571429,68.25 1.48571429,65.65 L1.48571429,10.8642857 C1.48571429,8.26428571 3.52857143,6.12857143 6.03571429,6.12857143 L32.9642857,6.12857143 L32.9642857,5.10714286 C32.5928571,5.01428571 32.2214286,5.01428571 31.85,5.01428571 L6.03571429,5.01428571 C2.87857143,5.01428571 0.278571429,7.61428571 0.278571429,10.8642857 L0.278571429,65.7428571 C0.278571429,68.9928571 2.87857143,71.5928571 6.03571429,71.5928571 L31.9428571,71.5928571 C35.1,71.5928571 37.7,68.9928571 37.7,65.7428571 L37.7,45.8714286 L36.4928571,45.8714286 L36.4928571,65.65 Z" id="Shape"></path>
                        <path d="M32.9642857,54.6 C32.9642857,54.3214286 32.6857143,54.0428571 32.4071429,54.0428571 L5.57142857,54.0428571 C5.29285714,54.0428571 5.01428571,54.3214286 5.01428571,54.6 C5.01428571,54.8785714 5.29285714,55.1571429 5.57142857,55.1571429 L32.4071429,55.1571429 C32.7785714,55.1571429 32.9642857,54.9714286 32.9642857,54.6 Z" id="Shape"></path>
                        <circle id="Oval" cx="19.0357143" cy="62.7714286" r="2.87857143"></circle>
                        <path d="M5.57142857,14.3 C5.75714286,14.3 5.85,14.2071429 5.94285714,14.1142857 L9.47142857,10.5857143 C9.65714286,10.4 9.65714286,10.0285714 9.47142857,9.75 C9.28571429,9.47142857 8.91428571,9.56428571 8.63571429,9.75 L5.10714286,13.2785714 C4.92142857,13.4642857 4.92142857,13.8357143 5.10714286,14.1142857 C5.29285714,14.2071429 5.38571429,14.3 5.57142857,14.3 Z" id="Shape"></path>
                        <path d="M5.10714286,19.9642857 C5.2,20.0571429 5.38571429,20.15 5.47857143,20.15 C5.57142857,20.15 5.75714286,20.0571429 5.85,19.9642857 L15.2285714,10.5857143 C15.4142857,10.4 15.4142857,10.0285714 15.2285714,9.75 C15.0428571,9.56428571 14.6714286,9.56428571 14.3928571,9.75 L5.10714286,19.1285714 C4.92142857,19.4071429 4.92142857,19.7785714 5.10714286,19.9642857 Z" id="Shape"></path>
                        <path d="M36.4928571,6.12857143 L36.4928571,2.97142857 C36.4928571,2.41428571 36.9571429,2.04285714 37.4214286,2.04285714 L45.9642857,2.04285714 C46.5214286,2.04285714 46.8928571,2.50714286 46.8928571,2.97142857 L46.8928571,11.5142857 C46.8928571,12.0714286 46.4285714,12.4428571 45.9642857,12.4428571 L42.8071429,12.4428571 L42.8071429,13.65 L45.9642857,13.65 C47.1714286,13.65 48.1,12.7214286 48.1,11.5142857 L48.1,2.97142857 L48.1,2.97142857 L48.1,2.50714286 C47.9142857,1.57857143 47.0785714,0.835714286 45.9642857,0.835714286 L37.4214286,0.835714286 C36.4,0.835714286 35.5642857,1.57857143 35.2857143,2.50714286 L35.2857143,2.97142857 L35.2857143,2.97142857 L35.2857143,6.03571429 L35.2857143,6.03571429 L35.2857143,6.03571429 L36.4928571,6.03571429 L36.4928571,6.12857143 Z" id="Shape"></path>
                        <path d="M24.8857143,8.45 C23.5857143,8.45 22.4714286,9.56428571 22.4714286,10.8642857 L22.4714286,23.0285714 L23.6785714,23.0285714 L23.6785714,10.8642857 C23.6785714,10.2142857 24.2357143,9.65714286 24.8857143,9.65714286 L38.1642857,9.65714286 C38.8142857,9.65714286 39.3714286,10.2142857 39.3714286,10.8642857 L39.3714286,17.8285714 L40.5785714,17.8285714 L40.5785714,10.8642857 C40.5785714,9.56428571 39.4642857,8.45 38.1642857,8.45 L24.8857143,8.45 L24.8857143,8.45 Z" id="Shape"></path>
                        <path d="M15.3214286,25.4428571 C14.1142857,25.4428571 13.1857143,26.4642857 13.1857143,27.5785714 L13.1857143,39.5571429 C13.1857143,40.7642857 14.2071429,41.6928571 15.3214286,41.6928571 L17.8285714,41.6928571 L17.8285714,40.4857143 L15.3214286,40.4857143 C14.7642857,40.4857143 14.3,40.0214286 14.3,39.4642857 L14.3,27.5785714 C14.3,27.0214286 14.7642857,26.5571429 15.3214286,26.5571429 L26,26.5571429 L26,25.35 L15.3214286,25.35 L15.3214286,25.4428571 Z" id="Shape"></path>
                        <path d="M32.9642857,45.8714286 L31.7571429,45.8714286 L31.7571429,48.2857143 C31.7571429,48.5642857 31.4785714,48.8428571 31.2,48.8428571 L21.9142857,48.8428571 C21.6357143,48.8428571 21.3571429,48.5642857 21.3571429,48.2857143 L21.3571429,38.8142857 C21.3571429,38.5357143 21.6357143,38.2571429 21.9142857,38.2571429 L26,38.2571429 L26,37.05 L21.9142857,37.05 C20.9857143,37.05 20.2428571,37.7928571 20.2428571,38.7214286 L20.2428571,48.1 C20.2428571,49.0285714 20.9857143,49.7714286 21.9142857,49.7714286 L31.2928571,49.7714286 C32.2214286,49.7714286 32.9642857,49.0285714 32.9642857,48.1 L32.9642857,45.8714286 Z" id="Shape"></path>
                        <path d="M48.5642857,20.15 L36.4928571,20.15 L31.3857143,20.15 C29.7142857,20.15 28.3214286,21.5428571 28.3214286,23.2142857 L28.3214286,40.3928571 C28.3214286,40.7642857 28.4142857,41.0428571 28.5071429,41.4142857 C28.6,41.7857143 28.8785714,42.1571429 29.0642857,42.4357143 C29.3428571,42.7142857 29.6214286,42.9928571 29.9928571,43.1785714 C30.4571429,43.3642857 30.9214286,43.55 31.3857143,43.55 L48.5642857,43.55 C50.2357143,43.55 51.7214286,42.1571429 51.7214286,40.3928571 L51.7214286,23.3071429 C51.7214286,21.5428571 50.3285714,20.15 48.5642857,20.15 Z M50.5142857,40.3928571 C50.5142857,41.5071429 49.6785714,42.3428571 48.5642857,42.3428571 L31.85,42.3428571 L31.4785714,42.3428571 C31.2928571,42.3428571 31.1071429,42.3428571 31.0142857,42.25 C30.6428571,42.1571429 30.2714286,41.8785714 29.9928571,41.6 C29.7142857,41.2285714 29.5285714,40.8571429 29.5285714,40.3928571 L29.5285714,23.3071429 C29.5285714,22.1928571 30.3642857,21.3571429 31.4785714,21.3571429 L48.6571429,21.3571429 C49.7714286,21.3571429 50.6071429,22.1928571 50.6071429,23.3071429 L50.6071429,40.3928571 L50.5142857,40.3928571 Z" id="Shape"></path>
                    </g>
                </g>
            </g>
        </g>
    </g>
</svg>