<?xml version="1.0" encoding="UTF-8" standalone="no"?>
<svg width="61px" height="52px" viewBox="0 0 61 52" version="1.1" xmlns="http://www.w3.org/2000/svg" xmlns:xlink="http://www.w3.org/1999/xlink">
    <!-- Generator: Sketch 43.2 (39069) - http://www.bohemiancoding.com/sketch -->
    <title>noun_159285_cc</title>
    <desc>Created with Sketch.</desc>
    <defs></defs>
    <g id="1440-view" stroke="none" stroke-width="1" fill="none" fill-rule="evenodd">
        <g id="Our-Sevice-app-Copy-2" transform="translate(-270.000000, -684.000000)" fill-rule="nonzero" stroke="#FFFFFF" stroke-width="0.5" fill="#FFFFFF">
            <g id="Design" transform="translate(39.000000, 684.000000)">
                <g id="noun_159285_cc" transform="translate(231.000000, 0.000000)">
                    <g id="Group">
                        <g id="Shape">
                            <path d="M59.8266341,51.4406829 C59.4182439,51.4406829 59.0878537,51.1102927 59.0878537,50.7025366 L59.0878537,38.5592683 C59.0865854,33.7689268 55.1897561,29.8714634 50.4006829,29.8714634 C49.993561,29.8714634 49.6625366,29.5410732 49.6625366,29.1333171 L49.6606341,16.1637561 C49.6606341,14.8377561 48.5819512,13.758439 47.2565854,13.7578049 C46.8481951,13.7578049 46.518439,13.4267805 46.518439,13.0183902 C46.518439,12.6106341 46.8494634,12.280878 47.2565854,12.280878 L47.2578537,12.280878 C49.3968293,12.2815122 51.137561,14.0241463 51.137561,16.1643902 L51.1394634,28.4211707 C56.3990732,28.8010244 60.5641463,33.2032683 60.5647805,38.5599024 L60.5647805,50.7031707 C60.5647805,51.1102927 60.2350244,51.4406829 59.8266341,51.4406829 Z"></path>
                            <path d="M47.2559512,45.9825854 L4.20185366,45.9825854 C2.06160976,45.9825854 0.320878049,44.2424878 0.320878049,42.1016098 L0.320878049,29.1326829 C0.320878049,28.725561 0.651902439,28.3939024 1.05965854,28.3939024 L4.51829268,28.3939024 C4.71487805,28.3939024 4.90195122,28.4712683 5.04082927,28.6095122 C5.17970732,28.7483902 5.25707317,28.9360976 5.25707317,29.1320488 C5.25643902,29.9418537 5.57160976,30.7034634 6.1442439,31.2760976 C6.71687805,31.8487317 7.4784878,32.1639024 8.28829268,32.1639024 C9.95990244,32.1639024 11.3207805,30.8030244 11.3207805,29.1326829 C11.3207805,27.460439 9.95990244,26.099561 8.28829268,26.099561 C7.63385366,26.099561 7.0117561,26.3043902 6.48921951,26.6905854 C6.16009756,26.9347317 5.69970732,26.8630732 5.45682927,26.5364878 C5.21395122,26.208 5.28243902,25.7469756 5.61029268,25.5034634 C6.38965854,24.9263902 7.31614634,24.6226341 8.28829268,24.6226341 C10.7747805,24.6226341 12.7970732,26.645561 12.7970732,29.1320488 C12.7970732,31.6185366 10.7747805,33.6401951 8.28829268,33.6401951 C7.08404878,33.6401951 5.95146341,33.171561 5.09917073,32.3192683 C4.42380488,31.6445366 3.98941463,30.792878 3.83785366,29.869561 L1.79653659,29.869561 L1.79653659,42.1009756 C1.79653659,43.4263415 2.87458537,44.5043902 4.20058537,44.5043902 L47.2540488,44.5043902 C48.5794146,44.5043902 49.6593659,43.4269756 49.6593659,42.1009756 L49.6593659,33.990878 C49.6593659,33.5818537 49.9897561,33.2527317 50.3975122,33.2527317 C50.8052683,33.2527317 51.1362927,33.5824878 51.1362927,33.990878 L51.1362927,42.1009756 C51.1369268,44.2418537 49.3961951,45.9825854 47.2559512,45.9825854 Z"></path>
                            <path d="M23.1894634,29.2506341 C22.9973171,29.2506341 22.8089756,29.1758049 22.667561,29.0343902 C22.4627317,28.8301951 22.3961463,28.5251707 22.4982439,28.2543902 L24.5148293,22.8476585 C24.5516098,22.7493659 24.6080488,22.6586829 24.6841463,22.5838537 L33.5101951,13.7578049 L4.20439024,13.758439 L4.2037561,13.758439 C2.87902439,13.758439 1.80097561,14.8364878 1.79843902,16.1643902 L1.79843902,24.8743902 C1.79843902,25.2821463 1.46804878,25.6131707 1.05965854,25.6131707 C0.652536585,25.6131707 0.321512195,25.2827805 0.321512195,24.8743902 L0.321512195,16.163122 C0.323414634,14.0216098 2.0635122,12.2802439 4.2024878,12.2802439 L4.2037561,12.2802439 L35.2921463,12.2802439 C35.5908293,12.2802439 35.8603415,12.4597073 35.975122,12.7361951 C36.0886341,13.0120488 36.0258537,13.3297561 35.8146829,13.5409268 L25.8420976,23.512878 L24.4469756,27.2543415 L28.3368293,25.8040488 C28.7198537,25.6607317 29.1453659,25.8554146 29.2874146,26.2378049 C29.4294634,26.619561 29.2360488,27.0457073 28.8530244,27.1883902 L23.447561,29.2049756 C23.3638537,29.2354146 23.2757073,29.2506341 23.1894634,29.2506341 Z"></path>
                            <g transform="translate(3.804878, 17.756098)">
                                <path d="M7.6262439,5.13785366 L1.33995122,5.13785366 C0.931560976,5.13785366 0.601170732,4.80746341 0.601170732,4.39907317 C0.601170732,3.99068293 0.931560976,3.66029268 1.33995122,3.66029268 L7.6262439,3.66029268 C8.03463415,3.66029268 8.36502439,3.99068293 8.36502439,4.39907317 C8.36502439,4.80746341 8.03463415,5.13785366 7.6262439,5.13785366 Z"></path>
                                <path d="M7.6262439,1.94809756 L1.33995122,1.94809756 C0.931560976,1.94809756 0.601170732,1.61770732 0.601170732,1.20931707 C0.601170732,0.800926829 0.931560976,0.470536585 1.33995122,0.470536585 L7.6262439,0.470536585 C8.03463415,0.470536585 8.36502439,0.800926829 8.36502439,1.20931707 C8.36502439,1.61770732 8.03463415,1.94809756 7.6262439,1.94809756 Z"></path>
                            </g>
                            <g transform="translate(3.804878, 34.878049)">
                                <path d="M7.6262439,5.15814634 L1.33995122,5.15814634 C0.931560976,5.15814634 0.601170732,4.8277561 0.601170732,4.42 C0.601170732,4.0122439 0.931560976,3.68121951 1.33995122,3.68121951 L7.6262439,3.68121951 C8.03463415,3.68121951 8.36502439,4.0122439 8.36502439,4.42 C8.36502439,4.82902439 8.03463415,5.15814634 7.6262439,5.15814634 Z"></path>
                                <path d="M7.6262439,1.96839024 L7.6262439,1.96839024 L1.33995122,1.9677561 C0.931560976,1.9677561 0.601170732,1.63736585 0.601170732,1.22960976 C0.601170732,0.821853659 0.932195122,0.490829268 1.33995122,0.490829268 L1.33995122,0.490829268 L7.6262439,0.492097561 C8.03463415,0.492097561 8.36502439,0.823121951 8.36502439,1.2302439 C8.36502439,1.638 8.03336585,1.96839024 7.6262439,1.96839024 Z"></path>
                            </g>
                            <path d="M48.1640488,6.26282927 C47.9750732,6.26282927 47.7848293,6.19117073 47.640878,6.04785366 C47.3523415,5.75868293 47.3523415,5.29195122 47.640878,5.00404878 L49.4640488,3.18087805 C49.5896098,3.05468293 49.6593659,2.88663415 49.6593659,2.70843902 C49.6593659,2.53214634 49.5896098,2.36409756 49.4640488,2.23917073 C49.2053171,1.98107317 48.7817073,1.97917073 48.5191707,2.23853659 L46.6991707,4.06170732 C46.4112683,4.3502439 45.9426341,4.34960976 45.6540976,4.06234146 C45.365561,3.77380488 45.365561,3.30580488 45.6540976,3.01726829 L47.4753659,1.19346341 C48.3130732,0.360195122 49.6739512,0.360829268 50.5084878,1.19346341 C50.912439,1.59741463 51.1356585,2.13517073 51.1356585,2.70780488 C51.1356585,3.28107317 50.9130732,3.81946341 50.5084878,4.22531707 L48.6853171,6.0484878 C48.542,6.19117073 48.3530244,6.26282927 48.1640488,6.26282927 Z"></path>
                            <path d="M32.6997561,19.7397073 C32.5107805,19.7397073 32.3205366,19.6680488 32.1765854,19.5240976 C31.8886829,19.2349268 31.8886829,18.7681951 32.1765854,18.4802927 L33.4379024,17.2196098 C33.726439,16.9310732 34.1938049,16.9310732 34.4823415,17.2196098 C34.7702439,17.5081463 34.7702439,17.9755122 34.4823415,18.2634146 L33.2210244,19.5240976 C33.0770732,19.6680488 32.8887317,19.7397073 32.6997561,19.7397073 Z"></path>
                            <path d="M29.891122,22.5477073 C29.7021463,22.5477073 29.5131707,22.4760488 29.3685854,22.3320976 C29.0794146,22.043561 29.0794146,21.575561 29.3685854,21.2882927 L30.6299024,20.0269756 C30.918439,19.738439 31.3851707,19.738439 31.6737073,20.0269756 C31.9622439,20.3161463 31.9622439,20.7835122 31.6737073,21.0707805 L30.4117561,22.3320976 C30.2690732,22.4760488 30.0800976,22.5477073 29.891122,22.5477073 Z"></path>
                            <path d="M45.0560976,40.0361951 L15.2017561,40.0361951 C14.7933659,40.0361951 14.4629756,39.7058049 14.4629756,39.2980488 L14.4629756,18.9654146 C14.4629756,18.5570244 14.7933659,18.2266341 15.2017561,18.2266341 L24.05,18.226 C24.4577561,18.226 24.7887805,18.5563902 24.7887805,18.9647805 C24.7887805,19.3731707 24.4583902,19.703561 24.05,19.703561 L15.9399024,19.7041951 L15.9399024,38.5599024 L44.3173171,38.5599024 L44.3173171,19.703561 L36.1273171,19.703561 C35.8286341,19.703561 35.559122,19.5247317 35.4456098,19.2469756 C35.3301951,18.971122 35.3936098,18.6540488 35.6054146,18.4422439 L47.8203415,6.22668293 L45.4752683,3.88097561 L39.1693171,10.1843902 C38.8807805,10.4729268 38.4140488,10.4729268 38.1255122,10.1843902 C37.8369756,9.89585366 37.8369756,9.4284878 38.1255122,9.13995122 L44.9527317,2.31590244 C45.2412683,2.02736585 45.7086341,2.02736585 45.9971707,2.31590244 L49.3866829,5.70541463 C49.6745854,5.99395122 49.6745854,6.46131707 49.3866829,6.74921951 L37.9092683,18.226 L45.0554634,18.226 C45.4638537,18.226 45.7942439,18.5563902 45.7942439,18.9647805 L45.7942439,39.2986829 C45.7942439,39.7070732 45.4644878,40.0361951 45.0560976,40.0361951 Z"></path>
                            <path d="M28.5961951,27.2346829 C28.4072195,27.2346829 28.2169756,27.1623902 28.0730244,27.018439 C27.7844878,26.7299024 27.7844878,26.2631707 28.0730244,25.9746341 L32.4448293,21.6021951 C32.734,21.3136585 33.2000976,21.3136585 33.4886341,21.6021951 C33.7771707,21.8907317 33.7771707,22.3580976 33.4886341,22.646 L29.1168293,27.018439 C28.9735122,27.1617561 28.7845366,27.2346829 28.5961951,27.2346829 Z"></path>
                        </g>
                    </g>
                </g>
            </g>
        </g>
    </g>
</svg>