<?xml version="1.0" encoding="UTF-8" standalone="no"?>
<svg width="52px" height="71px" viewBox="0 0 52 71" version="1.1" xmlns="http://www.w3.org/2000/svg" xmlns:xlink="http://www.w3.org/1999/xlink">
    <!-- Generator: Sketch 43.2 (39069) - http://www.bohemiancoding.com/sketch -->
    <title>noun_662150_cc</title>
    <desc>Created with Sketch.</desc>
    <defs></defs>
    <g id="1440-view" stroke="none" stroke-width="1" fill="none" fill-rule="evenodd">
        <g id="Our-Sevice-app" transform="translate(-1004.000000, -689.000000)" fill-rule="nonzero" fill="#FFFFFF">
            <g id="quality" transform="translate(1004.000000, 689.000000)">
                <g id="noun_662150_cc">
                    <g id="Group">
                        <g>
                            <path d="M41.4124848,25.6446667 C42.2752121,24.1516364 42.503697,22.4112121 42.0569697,20.7464242 C41.6102424,19.0816364 40.5426667,17.6886667 39.0496364,16.8267273 C38.0695152,16.2610303 36.9538788,15.9608485 35.8264242,15.9608485 C33.5250303,15.9608485 31.3804242,17.1986061 30.231697,19.1895758 C29.3689697,20.6826061 29.139697,22.4230303 29.5864242,24.0878182 C30.0331515,25.7526061 31.1015152,27.1447879 32.5945455,28.0067273 C33.5746667,28.5732121 34.6887273,28.8733939 35.8169697,28.8733939 C38.1191515,28.8733939 40.2621818,27.6364242 41.4124848,25.6446667 Z M38.9487879,24.2225455 C38.3058788,25.3366061 37.1059394,26.0283636 35.8169697,26.0283636 C35.1882424,26.0283636 34.5658182,25.8613333 34.0174545,25.5438182 C33.1807273,25.0616364 32.5835152,24.2832121 32.3337576,23.3519394 C32.084,22.4206667 32.2124242,21.4476364 32.6946061,20.611697 C33.3375152,19.4976364 34.5382424,18.8050909 35.8264242,18.8050909 C36.4551515,18.8050909 37.0783636,18.9729091 37.6275152,19.2896364 C38.4626667,19.7726061 39.0598788,20.5510303 39.3096364,21.482303 C39.5593939,22.4143636 39.4309697,23.3873939 38.9487879,24.2225455 Z" id="Shape"></path>
                            <rect id="Rectangle-path" transform="translate(13.263191, 61.969260) rotate(-59.999272) translate(-13.263191, -61.969260) " x="3.99281911" y="60.5471697" width="18.5407436" height="2.84417985"></rect>
                            <rect id="Rectangle-path" transform="translate(10.076388, 55.758353) rotate(30.005690) translate(-10.076388, -55.758353) " x="8.65383341" y="50.2714114" width="2.84510998" height="10.9738831"></rect>
                            <rect id="Rectangle-path" transform="translate(20.238001, 61.619860) rotate(-149.994310) translate(-20.238001, -61.619860) " x="18.8154465" y="56.1333126" width="2.84510998" height="10.9730952"></rect>
                            <path d="M43.9510303,39.1449697 C45.006,37.6708485 46.0026667,36.0935152 46.9055758,34.4113939 C52.305697,24.3533333 53.0266061,13.2442424 49.0462424,1.3929697 L48.6467879,0.202484848 L47.4161212,0.451454545 C29.9504242,3.98666667 21.1773939,13.7634545 16.8338182,23.6347879 L13.5318182,22.75 C12.8928485,22.5782424 12.2310303,22.4915758 11.5652727,22.4915758 C8.04345455,22.4915758 5.00775758,24.8615152 4.34751515,28.1264848 L0.425454545,47.521697 L7.73145455,49.4795758 L12.8085455,41.2990303 C12.6990303,43.3924242 12.7210909,45.1769697 12.7809697,46.5061212 C12.7872727,46.6463636 12.7927879,46.7448485 12.7927879,46.7968485 L12.7927879,47.6186061 L25.3074545,54.8442424 L25.876303,54.6929697 C26.3041212,54.5779394 28.3368485,53.5670909 31.0826061,51.6714545 L26.4632727,60.2947879 L31.8121818,65.6421212 L46.6479394,52.5475758 C48.0708485,51.291697 48.8878788,49.5189697 48.9493333,47.5547879 C49.0155152,45.4511515 48.2000606,43.3924242 46.7125455,41.905697 L43.9510303,39.1449697 Z M6.42751515,46.1854545 L3.74321212,45.4661212 L7.13660606,28.6898182 C7.52975758,26.7469091 9.39230303,25.3358182 11.5660606,25.3358182 C11.9836364,25.3358182 12.3972727,25.3901818 12.7967273,25.4973333 L15.7678182,26.2930909 C14.7112727,29.1948485 14.007697,32.0556364 13.5452121,34.7186667 L6.42751515,46.1854545 Z M25.5650909,51.7084848 L15.606303,45.9593333 C15.2903636,37.1027879 16.8984242,10.2597576 46.7401212,3.50606061 C56.1111515,33.8748485 29.6738788,49.5142424 25.5650909,51.7084848 Z M44.7664848,50.4147879 L31.934303,61.7413333 L29.9693333,59.7771515 L36.6875758,47.2325455 C38.525697,45.5724848 40.4166061,43.6350909 42.2090303,41.4250909 L44.7018788,43.9179394 C45.6355152,44.8523636 46.1476364,46.1452727 46.1058788,47.4681212 C46.0704242,48.6381212 45.5945455,49.686 44.7664848,50.4147879 Z" id="Shape"></path>
                        </g>
                    </g>
                </g>
            </g>
        </g>
    </g>
</svg>