<?xml version="1.0" encoding="UTF-8" standalone="no"?>
<svg width="38px" height="54px" viewBox="0 0 38 54" version="1.1" xmlns="http://www.w3.org/2000/svg" xmlns:xlink="http://www.w3.org/1999/xlink">
    <!-- Generator: Sketch 43.2 (39069) - http://www.bohemiancoding.com/sketch -->
    <title>noun_97286_cc</title>
    <desc>Created with Sketch.</desc>
    <defs></defs>
    <g id="1440-view" stroke="none" stroke-width="1" fill="none" fill-rule="evenodd">
        <g id="Our-Sevice-app-Copy-2" transform="translate(-1003.000000, -694.000000)" fill-rule="nonzero" stroke="#FFFFFF" fill="#FFFFFF">
            <g id="quality" transform="translate(1004.000000, 695.000000)">
                <g id="noun_97286_cc">
                    <g id="Group">
                        <g id="Shape">
                            <path d="M16.8,42.3333333 C7.6,42.3333333 0.133333333,34.8666667 0.133333333,25.6666667 C0.133333333,16.4666667 7.6,9 16.8,9 C26,9 33.4666667,16.4666667 33.4666667,25.6666667 C33.4666667,34.8666667 26,42.3333333 16.8,42.3333333 Z M16.8,9.66666667 C8,9.66666667 0.8,16.8666667 0.8,25.6666667 C0.8,34.4666667 8,41.6666667 16.8,41.6666667 C25.6,41.6666667 32.8,34.4666667 32.8,25.6666667 C32.8,16.8666667 25.6666667,9.66666667 16.8,9.66666667 Z"></path>
                            <path d="M33.3333333,28.6666667 L32.6666667,28.6666667 L32.6666667,28 C34,28 35.3333333,27.2666667 35.3333333,26.1333333 L35.3333333,25.1333333 C35.3333333,24 34.0666667,23.2666667 32.9333333,23.2666667 L32.6666667,23.2666667 L32.6666667,22.6 L32.9333333,22.6 C34.4666667,22.6 36,23.5333333 36,25.1333333 L36,26.1333333 C36,27.6 34.7333333,28.4666667 33.3333333,28.6666667 L33.3333333,28.6666667 Z"></path>
                            <path d="M27.2,13.4 L25.5333333,2.6 C25.5333333,1.53333333 24.6666667,0.666666667 23.6666667,0.666666667 L10.0666667,0.666666667 C9.06666667,0.666666667 8.2,1.53333333 8.2,2.53333333 L6.53333333,13.4 L5.86666667,13.2666667 L7.53333333,2.46666667 C7.53333333,1.13333333 8.66666667,3.25665421e-15 10.0666667,3.25665421e-15 L23.6666667,3.25665421e-15 C25.0666667,3.25665421e-15 26.2,1.13333333 26.2,2.53333333 L27.8666667,13.2666667 L27.2,13.4 Z"></path>
                            <path d="M23.6,52 L10.0666667,52 C8.66666667,52 7.53333333,50.8666667 7.53333333,49.4666667 L5.86666667,38.7333333 L6.53333333,38.6 L8.2,49.4 C8.2,50.4666667 9.06666667,51.3333333 10.0666667,51.3333333 L23.6666667,51.3333333 C24.6666667,51.3333333 25.5333333,50.4666667 25.5333333,49.4666667 L27.2,38.6 L27.8666667,38.7333333 L26.2,49.5333333 C26.1333333,50.8666667 25,52 23.6,52 Z"></path>
                            <path d="M16.8,29 C14.9333333,29 13.4666667,27.5333333 13.4666667,25.6666667 C13.4666667,23.8 14.9333333,22.3333333 16.8,22.3333333 C18.6666667,22.3333333 20.1333333,23.8 20.1333333,25.6666667 C20.1333333,27.5333333 18.6666667,29 16.8,29 Z M16.8,23 C15.3333333,23 14.1333333,24.2 14.1333333,25.6666667 C14.1333333,27.1333333 15.3333333,28.3333333 16.8,28.3333333 C18.2666667,28.3333333 19.4666667,27.1333333 19.4666667,25.6666667 C19.4666667,24.2 18.3333333,23 16.8,23 Z"></path>
                            <path d="M22.8,23.6666667 C20.9333333,23.6666667 19.4666667,22.2 19.4666667,20.3333333 C19.4666667,18.4666667 20.9333333,17 22.8,17 C24.6666667,17 26.1333333,18.4666667 26.1333333,20.3333333 C26.1333333,22.2 24.6666667,23.6666667 22.8,23.6666667 Z M22.8,17.6666667 C21.3333333,17.6666667 20.1333333,18.8666667 20.1333333,20.3333333 C20.1333333,21.8 21.3333333,23 22.8,23 C24.2666667,23 25.4666667,21.8 25.4666667,20.3333333 C25.4666667,18.8666667 24.3333333,17.6666667 22.8,17.6666667 Z"></path>
                            <path d="M22.8,34.3333333 C20.9333333,34.3333333 19.4666667,32.8666667 19.4666667,31 C19.4666667,29.1333333 20.9333333,27.6666667 22.8,27.6666667 C24.6666667,27.6666667 26.1333333,29.1333333 26.1333333,31 C26.1333333,32.8666667 24.6666667,34.3333333 22.8,34.3333333 Z M22.8,28.3333333 C21.3333333,28.3333333 20.1333333,29.5333333 20.1333333,31 C20.1333333,32.4666667 21.3333333,33.6666667 22.8,33.6666667 C24.2666667,33.6666667 25.4666667,32.4666667 25.4666667,31 C25.4666667,29.5333333 24.3333333,28.3333333 22.8,28.3333333 Z"></path>
                            <path d="M28.1333333,28.3333333 C26.6666667,28.3333333 25.4666667,27.1333333 25.4666667,25.6666667 C25.4666667,24.2 26.6666667,23 28.1333333,23 C29.6,23 30.8,24.2 30.8,25.6666667 C30.8,27.1333333 29.6666667,28.3333333 28.1333333,28.3333333 Z M28.1333333,23.6666667 C27,23.6666667 26.1333333,24.5333333 26.1333333,25.6666667 C26.1333333,26.8 27,27.6666667 28.1333333,27.6666667 C29.2666667,27.6666667 30.1333333,26.8 30.1333333,25.6666667 C30.1333333,24.5333333 29.2666667,23.6666667 28.1333333,23.6666667 Z"></path>
                            <path d="M6.13333333,28.3333333 C4.66666667,28.3333333 3.46666667,27.1333333 3.46666667,25.6666667 C3.46666667,24.2 4.66666667,23 6.13333333,23 C7.6,23 8.8,24.2 8.8,25.6666667 C8.8,27.1333333 7.66666667,28.3333333 6.13333333,28.3333333 Z M6.13333333,23.6666667 C5,23.6666667 4.13333333,24.5333333 4.13333333,25.6666667 C4.13333333,26.8 5,27.6666667 6.13333333,27.6666667 C7.26666667,27.6666667 8.13333333,26.8 8.13333333,25.6666667 C8.13333333,24.5333333 7.26666667,23.6666667 6.13333333,23.6666667 Z"></path>
                            <path d="M16.8,37.6666667 C15.3333333,37.6666667 14.1333333,36.4666667 14.1333333,35 C14.1333333,33.5333333 15.3333333,32.3333333 16.8,32.3333333 C18.2666667,32.3333333 19.4666667,33.5333333 19.4666667,35 C19.4666667,36.4666667 18.3333333,37.6666667 16.8,37.6666667 Z M16.8,33 C15.6666667,33 14.8,33.8666667 14.8,35 C14.8,36.1333333 15.6666667,37 16.8,37 C17.9333333,37 18.8,36.1333333 18.8,35 C18.8,33.8666667 17.9333333,33 16.8,33 Z"></path>
                            <path d="M16.8,19 C15.3333333,19 14.1333333,17.8 14.1333333,16.3333333 C14.1333333,14.8666667 15.3333333,13.6666667 16.8,13.6666667 C18.2666667,13.6666667 19.4666667,14.8666667 19.4666667,16.3333333 C19.4666667,17.8 18.3333333,19 16.8,19 Z M16.8,14.3333333 C15.6666667,14.3333333 14.8,15.2 14.8,16.3333333 C14.8,17.4666667 15.6666667,18.3333333 16.8,18.3333333 C17.9333333,18.3333333 18.8,17.4666667 18.8,16.3333333 C18.8,15.2 17.9333333,14.3333333 16.8,14.3333333 Z"></path>
                            <path d="M10.8,23.6666667 C8.93333333,23.6666667 7.46666667,22.2 7.46666667,20.3333333 C7.46666667,18.4666667 8.93333333,17 10.8,17 C12.6666667,17 14.1333333,18.4666667 14.1333333,20.3333333 C14.1333333,22.2 12.6666667,23.6666667 10.8,23.6666667 Z M10.8,17.6666667 C9.33333333,17.6666667 8.13333333,18.8666667 8.13333333,20.3333333 C8.13333333,21.8 9.33333333,23 10.8,23 C12.2666667,23 13.4666667,21.8 13.4666667,20.3333333 C13.4666667,18.8666667 12.3333333,17.6666667 10.8,17.6666667 Z"></path>
                            <path d="M10.8,34.3333333 C8.93333333,34.3333333 7.46666667,32.8666667 7.46666667,31 C7.46666667,29.1333333 8.93333333,27.6666667 10.8,27.6666667 C12.6666667,27.6666667 14.1333333,29.1333333 14.1333333,31 C14.1333333,32.8666667 12.6666667,34.3333333 10.8,34.3333333 Z M10.8,28.3333333 C9.33333333,28.3333333 8.13333333,29.5333333 8.13333333,31 C8.13333333,32.4666667 9.33333333,33.6666667 10.8,33.6666667 C12.2666667,33.6666667 13.4666667,32.4666667 13.4666667,31 C13.4666667,29.5333333 12.3333333,28.3333333 10.8,28.3333333 Z"></path>
                        </g>
                    </g>
                </g>
            </g>
        </g>
    </g>
</svg>